<svg width="149" height="52" viewBox="0 0 149 52" fill="none" xmlns="http://www.w3.org/2000/svg">
<rect width="149" height="52" rx="8" fill="#212121"/>
<path d="M32 26L44 26" stroke="#FCF5E5" stroke-width="2" stroke-linecap="round"/>
<path d="M38 32V20" stroke="#FCF5E5" stroke-width="2" stroke-linecap="round"/>
<path d="M62.336 32H60.512L55.024 23.696V32H53.2V20.864H55.024L60.512 29.152V20.864H62.336V32ZM72.8113 27.376C72.8113 27.7067 72.7899 28.0053 72.7473 28.272H66.0113C66.0646 28.976 66.3259 29.5413 66.7953 29.968C67.2646 30.3947 67.8406 30.608 68.5233 30.608C69.5046 30.608 70.1979 30.1973 70.6033 29.376H72.5712C72.3046 30.1867 71.8193 30.8533 71.1153 31.376C70.4219 31.888 69.5579 32.144 68.5233 32.144C67.6806 32.144 66.9233 31.9573 66.2513 31.584C65.5899 31.2 65.0673 30.6667 64.6833 29.984C64.3099 29.2907 64.1233 28.4907 64.1233 27.584C64.1233 26.6773 64.3046 25.8827 64.6673 25.2C65.0406 24.5067 65.5579 23.9733 66.2193 23.6C66.8913 23.2267 67.6593 23.04 68.5233 23.04C69.3553 23.04 70.0966 23.2213 70.7473 23.584C71.3979 23.9467 71.9046 24.4587 72.2673 25.12C72.6299 25.7707 72.8113 26.5227 72.8113 27.376ZM70.9073 26.8C70.8966 26.128 70.6566 25.5893 70.1873 25.184C69.7179 24.7787 69.1366 24.576 68.4433 24.576C67.8139 24.576 67.2753 24.7787 66.8273 25.184C66.3793 25.5787 66.1126 26.1173 66.0273 26.8H70.9073ZM86.4463 23.184L83.7103 32H81.7903L80.0143 25.488L78.2383 32H76.3183L73.5663 23.184H75.4223L77.2623 30.272L79.1343 23.184H81.0383L82.8303 30.24L84.6543 23.184H86.4463ZM99.7416 24.192C99.7416 24.7573 99.6083 25.2907 99.3416 25.792C99.075 26.2933 98.6483 26.704 98.0616 27.024C97.475 27.3333 96.723 27.488 95.8056 27.488H93.7896V32H91.9656V20.88H95.8056C96.659 20.88 97.379 21.0293 97.9656 21.328C98.563 21.616 99.0056 22.0107 99.2936 22.512C99.5923 23.0133 99.7416 23.5733 99.7416 24.192ZM95.8056 26C96.499 26 97.0163 25.8453 97.3576 25.536C97.699 25.216 97.8696 24.768 97.8696 24.192C97.8696 22.976 97.1816 22.368 95.8056 22.368H93.7896V26H95.8056ZM105.305 32.144C104.473 32.144 103.721 31.9573 103.049 31.584C102.377 31.2 101.849 30.6667 101.465 29.984C101.081 29.2907 100.889 28.4907 100.889 27.584C100.889 26.688 101.087 25.8933 101.481 25.2C101.876 24.5067 102.415 23.9733 103.097 23.6C103.78 23.2267 104.543 23.04 105.385 23.04C106.228 23.04 106.991 23.2267 107.673 23.6C108.356 23.9733 108.895 24.5067 109.289 25.2C109.684 25.8933 109.881 26.688 109.881 27.584C109.881 28.48 109.679 29.2747 109.273 29.968C108.868 30.6613 108.313 31.2 107.609 31.584C106.916 31.9573 106.148 32.144 105.305 32.144ZM105.305 30.56C105.775 30.56 106.212 30.448 106.617 30.224C107.033 30 107.369 29.664 107.625 29.216C107.881 28.768 108.009 28.224 108.009 27.584C108.009 26.944 107.887 26.4053 107.641 25.968C107.396 25.52 107.071 25.184 106.665 24.96C106.26 24.736 105.823 24.624 105.353 24.624C104.884 24.624 104.447 24.736 104.041 24.96C103.647 25.184 103.332 25.52 103.097 25.968C102.863 26.4053 102.745 26.944 102.745 27.584C102.745 28.5333 102.985 29.2693 103.465 29.792C103.956 30.304 104.569 30.56 105.305 30.56ZM114.884 32.144C114.191 32.144 113.567 32.0213 113.012 31.776C112.468 31.52 112.036 31.1787 111.716 30.752C111.396 30.3147 111.226 29.8293 111.204 29.296H113.092C113.124 29.6693 113.3 29.984 113.62 30.24C113.951 30.4853 114.362 30.608 114.852 30.608C115.364 30.608 115.759 30.512 116.036 30.32C116.324 30.1173 116.468 29.8613 116.468 29.552C116.468 29.2213 116.308 28.976 115.988 28.816C115.679 28.656 115.183 28.48 114.5 28.288C113.839 28.1067 113.3 27.9307 112.884 27.76C112.468 27.5893 112.106 27.328 111.796 26.976C111.498 26.624 111.348 26.16 111.348 25.584C111.348 25.1147 111.487 24.688 111.764 24.304C112.042 23.9093 112.436 23.6 112.948 23.376C113.471 23.152 114.068 23.04 114.74 23.04C115.743 23.04 116.548 23.296 117.156 23.808C117.775 24.3093 118.106 24.9973 118.148 25.872H116.324C116.292 25.4773 116.132 25.1627 115.844 24.928C115.556 24.6933 115.167 24.576 114.676 24.576C114.196 24.576 113.828 24.6667 113.572 24.848C113.316 25.0293 113.188 25.2693 113.188 25.568C113.188 25.8027 113.274 26 113.444 26.16C113.615 26.32 113.823 26.448 114.068 26.544C114.314 26.6293 114.676 26.7413 115.156 26.88C115.796 27.0507 116.319 27.2267 116.724 27.408C117.14 27.5787 117.498 27.8347 117.796 28.176C118.095 28.5173 118.25 28.9707 118.26 29.536C118.26 30.0373 118.122 30.4853 117.844 30.88C117.567 31.2747 117.172 31.584 116.66 31.808C116.159 32.032 115.567 32.144 114.884 32.144ZM122.359 24.672V29.552C122.359 29.8827 122.434 30.1227 122.583 30.272C122.743 30.4107 123.01 30.48 123.383 30.48H124.503V32H123.063C122.242 32 121.613 31.808 121.175 31.424C120.738 31.04 120.519 30.416 120.519 29.552V24.672H119.479V23.184H120.519V20.992H122.359V23.184H124.503V24.672H122.359Z" fill="#FCF5E5"/>
</svg>
