<svg width="72" height="13" viewBox="0 0 72 13" fill="none" xmlns="http://www.w3.org/2000/svg">
<path d="M9.336 12H7.512L2.024 3.696V12H0.2V0.863999H2.024L7.512 9.152V0.863999H9.336V12ZM19.8113 7.376C19.8113 7.70667 19.7899 8.00533 19.7473 8.272H13.0113C13.0646 8.976 13.3259 9.54133 13.7953 9.968C14.2646 10.3947 14.8406 10.608 15.5233 10.608C16.5046 10.608 17.1979 10.1973 17.6033 9.376H19.5712C19.3046 10.1867 18.8193 10.8533 18.1153 11.376C17.4219 11.888 16.5579 12.144 15.5233 12.144C14.6806 12.144 13.9233 11.9573 13.2513 11.584C12.5899 11.2 12.0673 10.6667 11.6833 9.984C11.3099 9.29067 11.1233 8.49067 11.1233 7.584C11.1233 6.67733 11.3046 5.88267 11.6673 5.2C12.0406 4.50667 12.5579 3.97333 13.2193 3.6C13.8913 3.22667 14.6593 3.04 15.5233 3.04C16.3553 3.04 17.0966 3.22133 17.7473 3.584C18.3979 3.94667 18.9046 4.45867 19.2673 5.12C19.6299 5.77067 19.8113 6.52267 19.8113 7.376ZM17.9073 6.8C17.8966 6.128 17.6566 5.58933 17.1873 5.184C16.7179 4.77867 16.1366 4.576 15.4433 4.576C14.8139 4.576 14.2753 4.77867 13.8273 5.184C13.3793 5.57867 13.1126 6.11733 13.0273 6.8H17.9073ZM33.4463 3.184L30.7103 12H28.7903L27.0143 5.488L25.2383 12H23.3183L20.5663 3.184H22.4223L24.2623 10.272L26.1343 3.184H28.0383L29.8303 10.24L31.6543 3.184H33.4463ZM46.7416 4.192C46.7416 4.75733 46.6083 5.29067 46.3416 5.792C46.075 6.29333 45.6483 6.704 45.0616 7.024C44.475 7.33333 43.723 7.488 42.8056 7.488H40.7896V12H38.9656V0.879999H42.8056C43.659 0.879999 44.379 1.02933 44.9656 1.328C45.563 1.616 46.0056 2.01067 46.2936 2.512C46.5923 3.01333 46.7416 3.57333 46.7416 4.192ZM42.8056 6C43.499 6 44.0163 5.84533 44.3576 5.536C44.699 5.216 44.8696 4.768 44.8696 4.192C44.8696 2.976 44.1816 2.368 42.8056 2.368H40.7896V6H42.8056ZM52.3053 12.144C51.4733 12.144 50.7213 11.9573 50.0493 11.584C49.3773 11.2 48.8493 10.6667 48.4653 9.984C48.0813 9.29067 47.8893 8.49067 47.8893 7.584C47.8893 6.688 48.0866 5.89333 48.4813 5.2C48.8759 4.50667 49.4146 3.97333 50.0973 3.6C50.7799 3.22667 51.5426 3.04 52.3853 3.04C53.2279 3.04 53.9906 3.22667 54.6733 3.6C55.3559 3.97333 55.8946 4.50667 56.2893 5.2C56.6839 5.89333 56.8813 6.688 56.8813 7.584C56.8813 8.48 56.6786 9.27467 56.2733 9.968C55.8679 10.6613 55.3133 11.2 54.6093 11.584C53.9159 11.9573 53.1479 12.144 52.3053 12.144ZM52.3053 10.56C52.7746 10.56 53.2119 10.448 53.6173 10.224C54.0333 10 54.3693 9.664 54.6253 9.216C54.8813 8.768 55.0093 8.224 55.0093 7.584C55.0093 6.944 54.8866 6.40533 54.6413 5.968C54.3959 5.52 54.0706 5.184 53.6653 4.96C53.2599 4.736 52.8226 4.624 52.3533 4.624C51.8839 4.624 51.4466 4.736 51.0413 4.96C50.6466 5.184 50.3319 5.52 50.0973 5.968C49.8626 6.40533 49.7453 6.944 49.7453 7.584C49.7453 8.53333 49.9853 9.26933 50.4653 9.792C50.9559 10.304 51.5693 10.56 52.3053 10.56ZM61.8844 12.144C61.191 12.144 60.567 12.0213 60.0124 11.776C59.4684 11.52 59.0364 11.1787 58.7164 10.752C58.3964 10.3147 58.2257 9.82933 58.2044 9.296H60.0924C60.1244 9.66933 60.3004 9.984 60.6204 10.24C60.951 10.4853 61.3617 10.608 61.8524 10.608C62.3644 10.608 62.759 10.512 63.0364 10.32C63.3244 10.1173 63.4684 9.86133 63.4684 9.552C63.4684 9.22133 63.3084 8.976 62.9884 8.816C62.679 8.656 62.183 8.48 61.5004 8.288C60.839 8.10667 60.3004 7.93067 59.8844 7.76C59.4684 7.58933 59.1057 7.328 58.7964 6.976C58.4977 6.624 58.3484 6.16 58.3484 5.584C58.3484 5.11467 58.487 4.688 58.7644 4.304C59.0417 3.90933 59.4364 3.6 59.9484 3.376C60.471 3.152 61.0684 3.04 61.7404 3.04C62.743 3.04 63.5484 3.296 64.1564 3.808C64.775 4.30933 65.1057 4.99733 65.1484 5.872H63.3244C63.2924 5.47733 63.1324 5.16267 62.8444 4.928C62.5564 4.69333 62.167 4.576 61.6764 4.576C61.1964 4.576 60.8284 4.66667 60.5724 4.848C60.3164 5.02933 60.1884 5.26933 60.1884 5.568C60.1884 5.80267 60.2737 6 60.4444 6.16C60.615 6.32 60.823 6.448 61.0684 6.544C61.3137 6.62933 61.6764 6.74133 62.1564 6.88C62.7964 7.05067 63.319 7.22667 63.7244 7.408C64.1404 7.57867 64.4977 7.83467 64.7964 8.176C65.095 8.51733 65.2497 8.97067 65.2604 9.536C65.2604 10.0373 65.1217 10.4853 64.8444 10.88C64.567 11.2747 64.1724 11.584 63.6604 11.808C63.159 12.032 62.567 12.144 61.8844 12.144ZM69.3593 4.672V9.552C69.3593 9.88267 69.4339 10.1227 69.5833 10.272C69.7433 10.4107 70.0099 10.48 70.3833 10.48H71.5033V12H70.0633C69.2419 12 68.6126 11.808 68.1753 11.424C67.7379 11.04 67.5193 10.416 67.5193 9.552V4.672H66.4793V3.184H67.5193V0.992H69.3593V3.184H71.5033V4.672H69.3593Z" fill="#FCF5E5"/>
</svg>
